# xmcd
#
# Track frame offsets: 
#        187
#        30275
#        52377
#        69882
#        91997
#        113515
#        125737
#        155857
#        182270
#
# Disc length: 2899 seconds
#
# Revision: 4
# Processed by: cddbd v1.5.2PL0 Copyright (c) Steve Scherf et al.
# Submitted via: ExactAudioCopy v0.99pb5
#
DISCID=700b5109
DTITLE=Sting - The Soul Cages
DYEAR=1900
DGENRE=Rock
TTITLE0=Island Of Souls
TTITLE1=All This Time
TTITLE2=Mad About You
TTITLE3=Jeremiah Blues (Part 1)
TTITLE4=Why Should I Cry For You?
TTITLE5=Saint Agnes And The Burning Train
TTITLE6=The Wild Wild Sea
TTITLE7=The Soul Cages
TTITLE8=When The Angels Fall
EXTD=
EXTT0=Sting
EXTT1=Sting
EXTT2=Sting
EXTT3=Sting
EXTT4=Sting
EXTT5=Sting
EXTT6=Sting
EXTT7=Sting
EXTT8=Sting
PLAYORDER=
